<?xml version="1.0" encoding="utf-8"?>
<!-- Generator: Adobe Illustrator 18.0.0, SVG Export Plug-In . SVG Version: 6.00 Build 0)  -->
<!DOCTYPE svg PUBLIC "-//W3C//DTD SVG 1.1//EN" "http://www.w3.org/Graphics/SVG/1.1/DTD/svg11.dtd">
<svg version="1.1" id="Capa_1" xmlns="http://www.w3.org/2000/svg" xmlns:xlink="http://www.w3.org/1999/xlink" x="0px" y="0px"
	 viewBox="0 0 183.2 173.2" enable-background="new 0 0 183.2 173.2" xml:space="preserve">
<g id="_x39__4_">
	<path fill="#EC5D4F" d="M183.2,88.5c0,3.8-0.2,7.5-0.8,11.1c0,0.1,0,0.1,0,0.2c0,0.5-0.1,1-0.2,1.5c0,0,0,0.1,0,0.1
		c-1.8,11.6-5.9,22.5-11.9,32.1c-0.5,0.8-1,1.6-1.6,2.4c-0.6,0.9-1.2,1.7-1.8,2.5c-0.3,0.4-0.6,0.8-0.9,1.2
		c-6.3,8.4-14.2,15.6-23.3,21.2c-0.1,0.1-0.3,0.2-0.4,0.2c-0.3,0.2-0.6,0.4-0.8,0.5c-0.3,0.2-0.6,0.4-1,0.6
		c-2.4,1.4-4.8,2.6-7.3,3.7c-0.8,0.4-1.6,0.7-2.4,1c-0.6,0.3-1.3,0.5-2,0.8c-1.4,0.5-2.8,1-4.2,1.5c-0.8,0.3-1.6,0.5-2.4,0.8
		c-0.8,0.2-1.5,0.4-2.3,0.6c-4.5,1.2-9.1,2-13.9,2.4c-2,0.2-4,0.3-6.1,0.3H100c-0.5,0-1,0-1.4,0c-1.5,0-3.1,0-4.6-0.1
		c-2-0.1-4.1-0.3-6-0.5c-1-0.1-1.9-0.2-2.9-0.4c-1.8-0.3-3.5-0.6-5.2-1c-0.8-0.2-1.5-0.4-2.3-0.6c-0.9-0.2-1.8-0.5-2.6-0.7
		c-2.8-0.8-5.5-1.7-8.1-2.8c-2.5-1-4.9-2.1-7.3-3.4c-0.4-0.2-0.8-0.4-1.2-0.6c-0.3-0.2-0.6-0.3-1-0.5c-0.1-0.1-0.3-0.2-0.5-0.3
		c-9-5.1-17-11.8-23.6-19.7c-0.4-0.4-0.7-0.8-1-1.2c-11.6-14.5-18.5-32.8-18.5-52.8c0-46.8,37.9-84.7,84.7-84.7
		c45.9,0,83.3,36.5,84.6,82.1V86C183.2,86.9,183.2,87.7,183.2,88.5z"/>
	<path fill="#ECEDED" d="M166,83c0,2.3-0.1,4.5-0.3,6.8c-1.6,20.2-10.5,38.3-23.9,51.8c-5.8,5.8-12.4,10.8-19.7,14.7
		c0,0-0.1,0.1-0.1,0.1c-0.7,0.4-1.4,0.7-2.1,1.1c-3.7,1.9-7.6,3.4-11.6,4.7c-5.1,1.6-10.5,2.8-16,3.4c-0.3,0-0.7,0.1-1,0.1
		c-0.5,0.1-1,0.1-1.5,0.1c-0.8,0.1-1.5,0.1-2.3,0.2c-1,0.1-2,0.1-3,0.1c-0.5,0-0.9,0-1.4,0c-1,0-2,0-3-0.1c-0.5,0-1,0-1.6-0.1
		c-1.4-0.1-2.9-0.2-4.3-0.3c-0.7-0.1-1.4-0.2-2.1-0.2c-3.7-0.5-7.3-1.2-10.7-2.1c-2.6-0.7-5.1-1.5-7.6-2.5c-0.4-0.2-0.9-0.3-1.3-0.5
		c-7.3-2.9-14.1-6.8-20.2-11.5C12.6,133.5,0,109.7,0,83C0,37.2,37.2,0,83,0c43.5,0,79.1,33.4,82.7,76c0.1,0.6,0.1,1.2,0.1,1.8
		c0,0.6,0.1,1.1,0.1,1.7c0,0.2,0,0.3,0,0.5C166,80.9,166,82,166,83z"/>
	<g id="_x39__5_">
		<g>
			<g>
				<g>
					<g id="_x31_0_16_">
						<g>
							<g>
								<path fill="#EAB081" d="M107.4,101.4c-0.6,2.6-5.5,25.7-10,43.6c-2.4,9.8-4.8,18.1-6.2,20.6c-0.3,0.5-0.6,0.8-0.8,0.8
									c-0.2,0-0.4-0.3-0.7-0.7c-0.6-0.9-1.4-2.8-2.3-5.3c-1.4-3.9-3.2-9.4-5.1-15.4c-2.7-8.8-5.5-18.6-7.7-26.2
									c-0.7-2.6-1.4-4.9-2-6.8c-1-3.2-1.6-5.3-1.8-5.7c-1.1-1.6,0.4-4.8-0.9-6.3c0,0,0.2-0.2,0.5-0.6c0,0,0,0,0,0
									c1.3-1.6,4.6-6.4,4.8-15.2c0.1-2.8-0.2-6-0.9-9.6c-0.7-3.5,6-3.1,13.3-1.7c0.9,0.2,1.7,0.4,2.6,0.6c2.3,0.5,4.5,1.1,6.5,1.6
									c4.5,1.2,7.8,2.3,7.8,2.3c-0.6,1.4-1.1,2.8-1.5,4.4c-0.9,3.5-1.2,7.5,0.2,11.3c0.3,0.7,0.6,1.4,0.9,1.9
									c0.5,0.9,1,1.6,1.5,2.3c0,0,0,0,0,0C106.9,98.8,107.8,99.9,107.4,101.4z"/>
							</g>
						</g>
					</g>
					<g>
						<path fill="#A74214" d="M114.6,51.7c0-0.1,0-0.2,0-0.4C114.5,51.7,114.5,51.9,114.6,51.7z"/>
					</g>
					<g>
						<g>
							<path fill="#F0B784" d="M108.5,54.3c-0.7-3-2.3-5.7-4.3-8c-2.9-3.4-6.8-5.7-11.1-6.9c-1.7-0.5-3.5-0.7-5.2-1.4
								c-0.1,0-0.2-0.1-0.3-0.1v52.6c0.1,0,0.1,0,0.2,0c1.2,0.1,2.5,0,3.9-0.5c3.4-1.2,6-3.5,8.6-5.7c0.3-0.2,0.5-0.4,0.8-0.6
								c3.8-3.1,5.3-7.6,6.8-11.8C109.7,66.6,109.8,59.6,108.5,54.3z"/>
							<path fill="#FFC28E" d="M85.2,35.3c-0.6-0.6-1.4-1.4-2.3-2.3c-0.5-0.6-1-1.1-1.6-1.5c-1.2-0.7-2.8-0.6-4.2-0.2
								c-3.4,1-6.1,4-7.3,7.4c-1.2,3-1,6-1.1,9.2c-0.1,2.7-1.1,4.8-1.7,7.5c-1,5-0.9,11.5,0.8,16.5c1.4,4.2,3,8.7,6.8,11.8
								c0.4,0.3,0.8,0.7,1.2,1c2.5,2.1,5,4.2,8.2,5.3c1.3,0.5,2.5,0.6,3.7,0.5c0.1,0,0-7.9,0-8.4c0-9.9,0-19.8,0-29.7
								c0-3.8,0-7.7,0-11.5C87.7,37.9,86.8,36.9,85.2,35.3z"/>
							<g>
								<path fill="#FFC28E" d="M67.6,71c-0.9-0.2-1.7-0.5-2.4-1.1c-0.9-0.8-1.2-2.1-1.4-3.2c-0.2-1.2-0.3-2.4-0.7-3.5
									c-0.3-0.7-0.8-1.4-1.1-2.1c-0.3-0.7-0.4-1.6,0.1-2.3c0.5-0.6,1.4-0.8,2.2-0.8c0.9,0,1.6,0.3,2.2,0.8c0,0.6-0.1,1.1-0.1,1.7
									c0,2.3,0.2,4.5,0.5,6.8C67.1,68.5,67.4,69.8,67.6,71z"/>
							</g>
							<g>
								<path fill="#FFC28E" d="M113.2,61.1c-0.3,0.7-0.8,1.4-1.1,2.1c-0.5,1.1-0.5,2.3-0.7,3.5c-0.2,1.2-0.5,2.4-1.4,3.2
									c-0.5,0.5-1.2,0.8-1.8,0.9c0.4-1.2,0.6-2.6,0.8-3.9c0.3-2.2,0.4-4.6,0.3-6.8c0-0.6-0.1-1.2-0.1-1.7c0.5-0.3,1.1-0.5,1.7-0.5
									c0.8,0,1.7,0.2,2.2,0.8C113.6,59.4,113.5,60.3,113.2,61.1z"/>
							</g>
							<path fill="#232226" d="M107,69.6c0,0,0,0.1,0,0.1c3.7,17.3-5.7,29.6-4.6,30.2c0.9,0.5,9.3-7.6,14.1-21.2
								c1.5-4.4,8.8-25-2-43.7c-2.3-4-6.5-11.3-15.4-15c-9.1-3.9-22.2-1.4-30,4.4c-5.3,4-9.3,11.8-10.9,18.3
								c-1.9,7.8,2.1,15.5,4.5,22.8c0.3-2.4,0.6-6.3,1.8-8.5c1.1,1.1,2,2.6,2.8,4c0.7-9.6,1.4-17.6,7.5-25.6
								c-1.2,1.6,12.4,5.9,14.1,6.3C98.6,44.1,105.1,60.9,107,69.6z"/>
						</g>
					</g>
				</g>
			</g>
			<path fill="#FFFFFF" d="M78.2,73.4h19.7C97.9,73.4,88.1,89.2,78.2,73.4z"/>
		</g>
		<g>
			<path fill="#D64545" d="M87.4,112.8v53.1c-1,0.1-2,0.1-3,0.1c-0.5,0-0.9,0-1.4,0c-1,0-2,0-3-0.1c-0.5,0-1,0-1.6-0.1
				c-1.4-0.1-2.9-0.2-4.3-0.3c-0.7-0.1-1.4-0.2-2.1-0.2c-3.7-0.5-7.3-1.2-10.7-2.1c-2.6-0.7-5.1-1.5-7.6-2.5
				c-0.1-0.3-0.2-0.6-0.3-0.9l9.7-60c1-0.4,2.1-0.8,3.3-1.1c1.2-0.4,2.4-0.7,3.6-1.1c0.1,0.5,0.2,1.1,0.4,1.6c0,0,0,0,0,0
				c0,0,0,0.1,0.1,0.1c0.1,0.5,0.3,0.9,0.4,1.4c0.2,0.5,0.4,1,0.6,1.5c0,0,0,0.1,0,0.1c0.4,0.9,1,1.8,1.5,2.6
				c0.2,0.2,0.3,0.4,0.5,0.6c0.2,0.2,0.3,0.4,0.5,0.6c0.3,0.4,0.6,0.7,1,1.1c0.1,0.1,0.1,0.2,0.2,0.2c0.3,0.3,0.6,0.6,1,0.9
				c0.2,0.2,0.4,0.3,0.6,0.5c0.4,0.3,0.8,0.6,1.3,0.9c1.9,1.2,4,2.1,6.1,2.6c1,0.2,2,0.3,3,0.4H87.4
				C87.4,112.8,87.4,112.8,87.4,112.8z"/>
			<path fill="#D03730" d="M89.8,165.7c-0.8,0.1-1.5,0.1-2.3,0.2v-53.1c0.7,0,1.3,0,2,0c0.3,0,0.7-0.1,1-0.1c4.3-0.6,8.2-2.8,11-6.1
				c2.2-2.5,3.7-5.7,4.3-9.2c0-0.1,0-0.1,0-0.2c0,0,0,0,0,0c0,0,0,0,0.1,0c0.4,0.2,2.3,0.9,4.5,1.8c1.1,0.4,2.3,0.9,3.5,1.4
				l6.1,56.9c-3.7,1.9-7.6,3.4-11.6,4.7c-5.1,1.6-10.5,2.8-16,3.4c-0.3,0-0.7,0.1-1,0.1c-0.3,0.5-0.6,0.8-0.8,0.8
				C90.3,166.4,90.1,166.1,89.8,165.7z"/>
			<path fill="#A4D7E7" d="M53.5,159.8c-0.4-1.4-0.8-3.1-0.8-4.7c0,0.8,0,2.6-0.2,5c-7.3-2.9-14.1-6.8-20.2-11.5
				c1.8-11.7,3.5-22.2,4.5-26.1c2.5-9.7,6.1-15.8,15.7-18.7c3-0.9,6.5-2.4,10.8-4L53.5,159.8z"/>
			<path fill="#A4D7E7" d="M141.8,141.5c-5.8,5.8-12.4,10.8-19.7,14.7c0-0.5-0.1-0.8,0-1.1c0,0.4-0.1,0.8-0.1,1.1
				c-0.7,0.4-1.4,0.7-2.1,1.1l-6.1-56.9c3.9,1.6,7.8,3.1,8.5,3.3c9.5,2.9,13,9.1,15.6,18.7C138.9,126.3,140.4,133.7,141.8,141.5z"/>
		</g>
		<path fill="#A4D7E7" d="M110.3,99.1l-2.1,45.9H67.6l-1.2-46.3c1.2-0.4,2.4-0.7,3.6-1.1c1.8,9.4,10.3,15.9,19.3,15.1
			c8.1-0.7,14.9-7.1,16.2-15.5C105.7,97.2,107.7,98,110.3,99.1z"/>
		<g>
			<path fill="#D03730" d="M73.6,105.6c-0.5,1.6-0.9,3.9-1,6.6c0,2.9,0.5,5.3,1,6.9c4.6-1.4,9.2-2.8,13.7-4.1l-0.1-2.2L73.6,105.6z"
				/>
			<path fill="#D03730" d="M87.4,112.8l-0.1,2.2l13.7,4.1c0.4-1.5,0.9-3.6,1-6.1c0.1-3.1-0.4-5.7-1-7.5
				C96.5,108,92,110.4,87.4,112.8z"/>
		</g>
		<circle fill="#D03730" cx="87.3" cy="113.6" r="3.3"/>
		<circle fill="#FFFFFF" cx="87.7" cy="127" r="2.7"/>
		<circle fill="#FFFFFF" cx="87.3" cy="139.4" r="2.7"/>
	</g>
</g>
</svg>
